<svg width="0" height="0" class="hidden">
  <symbol xmlns="http://www.w3.org/2000/svg" viewBox="0 0 448 512" id="icon-circle">
    <path d="M224 96a160 160 0 1 0 0 320 160 160 0 1 0 0-320zM448 256A224 224 0 1 1 0 256a224 224 0 1 1 448 0z"></path>
  </symbol>
  <symbol xmlns="http://www.w3.org/2000/svg" viewBox="0 0 21 22" id="icon-cross">
    <path fill-rule="evenodd" d="M17.925.747l2.828 2.828L13.328 11l7.425 7.425-2.828 2.828-7.425-7.425-7.425 7.425-2.828-2.828L7.671 11 .247 3.575 3.075.747 10.5 8.171 17.925.747z"></path>
  </symbol>
  <symbol xmlns="http://www.w3.org/2000/svg" viewBox="0 0 512 512" id="icon-restart">
    <path d="M447.5 224H456c13.3 0 24-10.7 24-24V72c0-9.7-5.8-18.5-14.8-22.2s-19.3-1.7-26.2 5.2L397.4 96.6c-87.6-86.5-228.7-86.2-315.8 1c-87.5 87.5-87.5 229.3 0 316.8s229.3 87.5 316.8 0c12.5-12.5 12.5-32.8 0-45.3s-32.8-12.5-45.3 0c-62.5 62.5-163.8 62.5-226.3 0s-62.5-163.8 0-226.3c62.2-62.2 162.7-62.5 225.3-1L311 183c-6.9 6.9-8.9 17.2-5.2 26.2s12.5 14.8 22.2 14.8H447.5z"></path>
  </symbol>
</svg>